<svg width="500" height="120" viewBox="0 0 500 120" fill="none" xmlns="http://www.w3.org/2000/svg">
<path d="M53.6444 44.5725C65.0681 51.1679 79.6754 47.2539 86.2708 35.8303C92.8663 24.4066 88.9522 9.7993 77.5286 3.20386C66.105 -3.39157 51.4976 0.522452 44.9022 11.9461C38.3068 23.3697 42.2208 37.9771 53.6444 44.5725Z" fill="url(#paint0_linear_2052_385)"/>
<path d="M11.9461 116.796C23.3697 123.392 37.9771 119.478 44.5725 108.054C51.1679 96.6303 47.2539 82.023 35.8303 75.4275C24.4066 68.8321 9.7993 72.7461 3.20386 84.1697C-3.39157 95.5934 0.522452 110.201 11.9461 116.796Z" fill="url(#paint1_linear_2052_385)"/>
<path d="M41.8495 26.1105C42.9556 50.2603 35.4234 63.3091 13.985 74.3754L47.664 93.82C43.7337 68.1073 51.2672 55.059 75.5304 45.5562L41.8495 26.1105Z" fill="url(#paint2_linear_2052_385)"/>
<path d="M94.5002 59.9998C77.9317 59.9998 64.5002 73.4312 64.5002 89.9998C64.5002 106.568 77.9317 120 94.5002 120H122.019C122.644 120 123.216 119.768 123.653 119.386C120.926 117.361 117.795 116.784 113.857 116.1C111.974 115.772 110.055 115.852 107.506 115.958C104.46 116.084 100.516 116.248 94.6574 115.8C87.4441 114.608 85.1856 112.274 81.6086 108.304C80.4779 106.995 80.1488 106.289 79.8412 105.63C79.7003 105.328 79.564 105.036 79.3574 104.7C77.9657 102.096 77.612 100.658 77.2612 98.0997C77.0161 94.273 77.0248 92.5347 77.2612 90.2997C77.5052 88.2739 77.8607 86.9658 79.0612 84.2997C80.1365 81.9965 83.1517 82.1082 85.1392 83.6926L103.212 98.0997L103.965 98.8578L88.4133 79.8645C86.8107 77.9072 86.6985 74.9009 88.9999 73.8508C91.6764 72.6737 92.9875 72.3296 95.0154 72.1033C97.2523 71.8864 98.9907 71.8929 102.815 72.1713C105.37 72.5444 106.805 72.9107 109.397 74.325C109.731 74.5346 110.022 74.6735 110.322 74.8169C110.979 75.1303 111.682 75.4656 112.981 76.6076C116.919 80.2191 119.234 82.4979 120.363 89.7213C120.867 97.1654 120.677 102.097 120.552 105.359C120.493 106.883 120.448 108.042 120.495 108.923C120.506 109.136 120.516 109.353 120.526 109.574C120.637 112.064 120.774 115.114 123.41 118.446L123.988 119.028C124.309 118.61 124.5 118.086 124.5 117.518V89.9997C124.5 73.4312 111.069 59.9998 94.5002 59.9998Z" fill="#08C460"/>
<line x1="164.75" x2="164.75" y2="120" stroke="#030228" stroke-opacity="0.4" stroke-width="0.5"/>
<path d="M216.98 17.0001H220.46L232.58 45.3201H228.1L225.26 38.3201H211.78L208.98 45.3201H204.5L216.98 17.0001ZM223.86 34.9601L218.58 21.9601H218.5L213.14 34.9601H223.86Z" fill="#030228"/>
<path d="M254.344 45.3201H250.744V42.6001H250.664C249.971 43.6134 249.011 44.4001 247.784 44.9601C246.584 45.5201 245.344 45.8001 244.064 45.8001C242.598 45.8001 241.264 45.5467 240.064 45.0401C238.891 44.5334 237.878 43.8267 237.024 42.9201C236.198 42.0134 235.558 40.9601 235.104 39.7601C234.651 38.5601 234.424 37.2534 234.424 35.8401C234.424 34.4267 234.651 33.1201 235.104 31.9201C235.558 30.6934 236.198 29.6401 237.024 28.7601C237.878 27.8534 238.891 27.1467 240.064 26.6401C241.264 26.1334 242.598 25.8801 244.064 25.8801C245.424 25.8801 246.704 26.1734 247.904 26.7601C249.104 27.3201 250.024 28.0934 250.664 29.0801H250.744V15.0801H254.344V45.3201ZM244.504 42.4401C245.464 42.4401 246.331 42.2801 247.104 41.9601C247.878 41.6134 248.531 41.1601 249.064 40.6001C249.598 40.0134 250.011 39.3201 250.304 38.5201C250.598 37.6934 250.744 36.8001 250.744 35.8401C250.744 34.8801 250.598 34.0001 250.304 33.2001C250.011 32.3734 249.598 31.6801 249.064 31.1201C248.531 30.5334 247.878 30.0801 247.104 29.7601C246.331 29.4134 245.464 29.2401 244.504 29.2401C243.544 29.2401 242.678 29.4134 241.904 29.7601C241.131 30.0801 240.478 30.5334 239.944 31.1201C239.411 31.6801 238.998 32.3734 238.704 33.2001C238.411 34.0001 238.264 34.8801 238.264 35.8401C238.264 36.8001 238.411 37.6934 238.704 38.5201C238.998 39.3201 239.411 40.0134 239.944 40.6001C240.478 41.1601 241.131 41.6134 241.904 41.9601C242.678 42.2801 243.544 42.4401 244.504 42.4401Z" fill="#030228"/>
<path d="M257.517 26.3601H261.677L267.357 40.8801L272.797 26.3601H276.637L269.197 45.3201H265.237L257.517 26.3601Z" fill="#030228"/>
<path d="M279.877 28.6801C280.891 27.7467 282.064 27.0534 283.397 26.6001C284.731 26.1201 286.064 25.8801 287.397 25.8801C288.784 25.8801 289.971 26.0534 290.957 26.4001C291.971 26.7467 292.797 27.2134 293.437 27.8001C294.077 28.3867 294.544 29.0667 294.837 29.8401C295.157 30.5867 295.317 31.3734 295.317 32.2001V41.8801C295.317 42.5467 295.331 43.1601 295.357 43.7201C295.384 44.2801 295.424 44.8134 295.477 45.3201H292.277C292.197 44.3601 292.157 43.4001 292.157 42.4401H292.077C291.277 43.6667 290.331 44.5334 289.237 45.0401C288.144 45.5467 286.877 45.8001 285.437 45.8001C284.557 45.8001 283.717 45.6801 282.917 45.4401C282.117 45.2001 281.411 44.8401 280.797 44.3601C280.211 43.8801 279.744 43.2934 279.397 42.6001C279.051 41.8801 278.877 41.0534 278.877 40.1201C278.877 38.8934 279.144 37.8667 279.677 37.0401C280.237 36.2134 280.984 35.5467 281.917 35.0401C282.877 34.5067 283.984 34.1334 285.237 33.9201C286.517 33.6801 287.877 33.5601 289.317 33.5601H291.957V32.7601C291.957 32.2801 291.864 31.8001 291.677 31.3201C291.491 30.8401 291.211 30.4134 290.837 30.0401C290.464 29.6401 289.997 29.3334 289.437 29.1201C288.877 28.8801 288.211 28.7601 287.437 28.7601C286.744 28.7601 286.131 28.8267 285.597 28.9601C285.091 29.0934 284.624 29.2667 284.197 29.4801C283.771 29.6667 283.384 29.8934 283.037 30.1601C282.691 30.4267 282.357 30.6801 282.037 30.9201L279.877 28.6801ZM290.037 36.2001C289.184 36.2001 288.304 36.2534 287.397 36.3601C286.517 36.4401 285.704 36.6134 284.957 36.8801C284.237 37.1467 283.637 37.5201 283.157 38.0001C282.704 38.4801 282.477 39.0934 282.477 39.8401C282.477 40.9334 282.837 41.7201 283.557 42.2001C284.304 42.6801 285.304 42.9201 286.557 42.9201C287.544 42.9201 288.384 42.7601 289.077 42.4401C289.771 42.0934 290.331 41.6534 290.757 41.1201C291.184 40.5867 291.491 40.0001 291.677 39.3601C291.864 38.6934 291.957 38.0401 291.957 37.4001V36.2001H290.037Z" fill="#030228"/>
<path d="M300.54 26.3601H304.14V29.2801H304.22C304.673 28.2667 305.46 27.4534 306.58 26.8401C307.7 26.2001 308.993 25.8801 310.46 25.8801C311.366 25.8801 312.233 26.0267 313.06 26.3201C313.913 26.5867 314.646 27.0134 315.26 27.6001C315.9 28.1867 316.406 28.9467 316.78 29.8801C317.153 30.7867 317.34 31.8667 317.34 33.1201V45.3201H313.74V34.1201C313.74 33.2401 313.62 32.4934 313.38 31.8801C313.14 31.2401 312.82 30.7334 312.42 30.3601C312.02 29.9601 311.553 29.6801 311.02 29.5201C310.513 29.3334 309.98 29.2401 309.42 29.2401C308.673 29.2401 307.98 29.3601 307.34 29.6001C306.7 29.8401 306.14 30.2267 305.66 30.7601C305.18 31.2667 304.806 31.9201 304.54 32.7201C304.273 33.5201 304.14 34.4667 304.14 35.5601V45.3201H300.54V26.3601Z" fill="#030228"/>
<path d="M336.326 31.4001C335.66 30.7067 334.953 30.1867 334.206 29.8401C333.486 29.4667 332.62 29.2801 331.606 29.2801C330.62 29.2801 329.753 29.4667 329.006 29.8401C328.286 30.1867 327.673 30.6801 327.166 31.3201C326.686 31.9334 326.313 32.6534 326.046 33.4801C325.806 34.2801 325.686 35.1201 325.686 36.0001C325.686 36.8801 325.833 37.7201 326.126 38.5201C326.42 39.2934 326.833 39.9734 327.366 40.5601C327.9 41.1467 328.54 41.6134 329.286 41.9601C330.033 42.2801 330.873 42.4401 331.806 42.4401C332.82 42.4401 333.686 42.2667 334.406 41.9201C335.126 41.5467 335.793 41.0134 336.406 40.3201L338.966 42.8801C338.033 43.9201 336.94 44.6667 335.686 45.1201C334.46 45.5734 333.153 45.8001 331.766 45.8001C330.3 45.8001 328.953 45.5601 327.726 45.0801C326.526 44.6001 325.486 43.9334 324.606 43.0801C323.726 42.2001 323.046 41.1601 322.566 39.9601C322.086 38.7334 321.846 37.3867 321.846 35.9201C321.846 34.4534 322.086 33.1067 322.566 31.8801C323.046 30.6534 323.713 29.6001 324.566 28.7201C325.446 27.8401 326.486 27.1601 327.686 26.6801C328.913 26.1734 330.273 25.9201 331.766 25.9201C333.153 25.9201 334.473 26.1734 335.726 26.6801C337.006 27.1601 338.113 27.9067 339.046 28.9201L336.326 31.4001Z" fill="#030228"/>
<path d="M344.783 37.1601C344.783 37.9867 344.956 38.7467 345.303 39.4401C345.676 40.1067 346.156 40.6801 346.743 41.1601C347.33 41.6401 348.01 42.0134 348.783 42.2801C349.556 42.5467 350.356 42.6801 351.183 42.6801C352.303 42.6801 353.276 42.4267 354.103 41.9201C354.93 41.3867 355.69 40.6934 356.383 39.8401L359.103 41.9201C357.103 44.5067 354.303 45.8001 350.703 45.8001C349.21 45.8001 347.85 45.5467 346.623 45.0401C345.423 44.5334 344.396 43.8401 343.543 42.9601C342.716 42.0534 342.076 41.0001 341.623 39.8001C341.17 38.5734 340.943 37.2534 340.943 35.8401C340.943 34.4267 341.183 33.1201 341.663 31.9201C342.17 30.6934 342.85 29.6401 343.703 28.7601C344.583 27.8534 345.623 27.1467 346.823 26.6401C348.023 26.1334 349.33 25.8801 350.743 25.8801C352.423 25.8801 353.836 26.1734 354.983 26.7601C356.156 27.3467 357.116 28.1201 357.863 29.0801C358.61 30.0134 359.143 31.0801 359.463 32.2801C359.81 33.4534 359.983 34.6534 359.983 35.8801V37.1601H344.783ZM356.143 34.2801C356.116 33.4801 355.983 32.7467 355.743 32.0801C355.53 31.4134 355.196 30.8401 354.743 30.3601C354.29 29.8534 353.716 29.4667 353.023 29.2001C352.356 28.9067 351.57 28.7601 350.663 28.7601C349.783 28.7601 348.97 28.9334 348.223 29.2801C347.503 29.6001 346.89 30.0267 346.383 30.5601C345.876 31.0934 345.476 31.6934 345.183 32.3601C344.916 33.0001 344.783 33.6401 344.783 34.2801H356.143Z" fill="#030228"/>
<path d="M383.29 45.3201H379.69V42.6001H379.61C378.916 43.6134 377.956 44.4001 376.73 44.9601C375.53 45.5201 374.29 45.8001 373.01 45.8001C371.543 45.8001 370.21 45.5467 369.01 45.0401C367.836 44.5334 366.823 43.8267 365.97 42.9201C365.143 42.0134 364.503 40.9601 364.05 39.7601C363.596 38.5601 363.37 37.2534 363.37 35.8401C363.37 34.4267 363.596 33.1201 364.05 31.9201C364.503 30.6934 365.143 29.6401 365.97 28.7601C366.823 27.8534 367.836 27.1467 369.01 26.6401C370.21 26.1334 371.543 25.8801 373.01 25.8801C374.37 25.8801 375.65 26.1734 376.85 26.7601C378.05 27.3201 378.97 28.0934 379.61 29.0801H379.69V15.0801H383.29V45.3201ZM373.45 42.4401C374.41 42.4401 375.276 42.2801 376.05 41.9601C376.823 41.6134 377.476 41.1601 378.01 40.6001C378.543 40.0134 378.956 39.3201 379.25 38.5201C379.543 37.6934 379.69 36.8001 379.69 35.8401C379.69 34.8801 379.543 34.0001 379.25 33.2001C378.956 32.3734 378.543 31.6801 378.01 31.1201C377.476 30.5334 376.823 30.0801 376.05 29.7601C375.276 29.4134 374.41 29.2401 373.45 29.2401C372.49 29.2401 371.623 29.4134 370.85 29.7601C370.076 30.0801 369.423 30.5334 368.89 31.1201C368.356 31.6801 367.943 32.3734 367.65 33.2001C367.356 34.0001 367.21 34.8801 367.21 35.8401C367.21 36.8001 367.356 37.6934 367.65 38.5201C367.943 39.3201 368.356 40.0134 368.89 40.6001C369.423 41.1601 370.076 41.6134 370.85 41.9601C371.623 42.2801 372.49 42.4401 373.45 42.4401Z" fill="#030228"/>
<path d="M207.46 67.0001H217.34C219.34 67.0001 221.087 67.2267 222.58 67.6801C224.1 68.1334 225.407 68.7467 226.5 69.5201C227.62 70.2667 228.54 71.1334 229.26 72.1201C230.007 73.1067 230.594 74.1201 231.02 75.1601C231.447 76.2001 231.754 77.2401 231.94 78.2801C232.127 79.3201 232.22 80.2801 232.22 81.1601C232.22 82.9734 231.887 84.7334 231.22 86.4401C230.554 88.1201 229.567 89.6267 228.26 90.9601C226.954 92.2667 225.327 93.3201 223.38 94.1201C221.46 94.9201 219.234 95.3201 216.7 95.3201H207.46V67.0001ZM211.3 91.7201H216.14C217.767 91.7201 219.3 91.5067 220.74 91.0801C222.207 90.6267 223.487 89.9601 224.58 89.0801C225.674 88.2001 226.54 87.1067 227.18 85.8001C227.82 84.4667 228.14 82.9201 228.14 81.1601C228.14 80.2534 227.994 79.2001 227.7 78.0001C227.407 76.7734 226.847 75.6134 226.02 74.5201C225.22 73.4267 224.1 72.5067 222.66 71.7601C221.22 70.9867 219.354 70.6001 217.06 70.6001H211.3V91.7201Z" fill="#030228"/>
<path d="M235.709 78.6801C236.722 77.7467 237.895 77.0534 239.229 76.6001C240.562 76.1201 241.895 75.8801 243.229 75.8801C244.615 75.8801 245.802 76.0534 246.789 76.4001C247.802 76.7467 248.629 77.2134 249.269 77.8001C249.909 78.3867 250.375 79.0667 250.669 79.8401C250.989 80.5867 251.149 81.3734 251.149 82.2001V91.8801C251.149 92.5467 251.162 93.1601 251.189 93.7201C251.215 94.2801 251.255 94.8134 251.309 95.3201H248.109C248.029 94.3601 247.989 93.4001 247.989 92.4401H247.909C247.109 93.6667 246.162 94.5334 245.069 95.0401C243.975 95.5467 242.709 95.8001 241.269 95.8001C240.389 95.8001 239.549 95.6801 238.749 95.4401C237.949 95.2001 237.242 94.8401 236.629 94.3601C236.042 93.8801 235.575 93.2934 235.229 92.6001C234.882 91.8801 234.709 91.0534 234.709 90.1201C234.709 88.8934 234.975 87.8667 235.509 87.0401C236.069 86.2134 236.815 85.5467 237.749 85.0401C238.709 84.5067 239.815 84.1334 241.069 83.9201C242.349 83.6801 243.709 83.5601 245.149 83.5601H247.789V82.7601C247.789 82.2801 247.695 81.8001 247.509 81.3201C247.322 80.8401 247.042 80.4134 246.669 80.0401C246.295 79.6401 245.829 79.3334 245.269 79.1201C244.709 78.8801 244.042 78.7601 243.269 78.7601C242.575 78.7601 241.962 78.8267 241.429 78.9601C240.922 79.0934 240.455 79.2667 240.029 79.4801C239.602 79.6667 239.215 79.8934 238.869 80.1601C238.522 80.4267 238.189 80.6801 237.869 80.9201L235.709 78.6801ZM245.869 86.2001C245.015 86.2001 244.135 86.2534 243.229 86.3601C242.349 86.4401 241.535 86.6134 240.789 86.8801C240.069 87.1467 239.469 87.5201 238.989 88.0001C238.535 88.4801 238.309 89.0934 238.309 89.8401C238.309 90.9334 238.669 91.7201 239.389 92.2001C240.135 92.6801 241.135 92.9201 242.389 92.9201C243.375 92.9201 244.215 92.7601 244.909 92.4401C245.602 92.0934 246.162 91.6534 246.589 91.1201C247.015 90.5867 247.322 90.0001 247.509 89.3601C247.695 88.6934 247.789 88.0401 247.789 87.4001V86.2001H245.869Z" fill="#030228"/>
<path d="M265.331 79.4801H260.171V88.0801C260.171 88.6134 260.184 89.1467 260.211 89.6801C260.238 90.1867 260.331 90.6534 260.491 91.0801C260.678 91.4801 260.944 91.8134 261.291 92.0801C261.664 92.3201 262.198 92.4401 262.891 92.4401C263.318 92.4401 263.758 92.4001 264.211 92.3201C264.664 92.2401 265.078 92.0934 265.451 91.8801V95.1601C265.024 95.4001 264.464 95.5601 263.771 95.6401C263.104 95.7467 262.584 95.8001 262.211 95.8001C260.824 95.8001 259.744 95.6134 258.971 95.2401C258.224 94.8401 257.664 94.3334 257.291 93.7201C256.944 93.1067 256.731 92.4267 256.651 91.6801C256.598 90.9067 256.571 90.1334 256.571 89.3601V79.4801H252.411V76.3601H256.571V71.0401H260.171V76.3601H265.331V79.4801Z" fill="#030228"/>
<path d="M268.856 78.6801C269.869 77.7467 271.042 77.0534 272.376 76.6001C273.709 76.1201 275.042 75.8801 276.376 75.8801C277.762 75.8801 278.949 76.0534 279.936 76.4001C280.949 76.7467 281.776 77.2134 282.416 77.8001C283.056 78.3867 283.522 79.0667 283.816 79.8401C284.136 80.5867 284.296 81.3734 284.296 82.2001V91.8801C284.296 92.5467 284.309 93.1601 284.336 93.7201C284.362 94.2801 284.402 94.8134 284.456 95.3201H281.256C281.176 94.3601 281.136 93.4001 281.136 92.4401H281.056C280.256 93.6667 279.309 94.5334 278.216 95.0401C277.122 95.5467 275.856 95.8001 274.416 95.8001C273.536 95.8001 272.696 95.6801 271.896 95.4401C271.096 95.2001 270.389 94.8401 269.776 94.3601C269.189 93.8801 268.722 93.2934 268.376 92.6001C268.029 91.8801 267.856 91.0534 267.856 90.1201C267.856 88.8934 268.122 87.8667 268.656 87.0401C269.216 86.2134 269.962 85.5467 270.896 85.0401C271.856 84.5067 272.962 84.1334 274.216 83.9201C275.496 83.6801 276.856 83.5601 278.296 83.5601H280.936V82.7601C280.936 82.2801 280.842 81.8001 280.656 81.3201C280.469 80.8401 280.189 80.4134 279.816 80.0401C279.442 79.6401 278.976 79.3334 278.416 79.1201C277.856 78.8801 277.189 78.7601 276.416 78.7601C275.722 78.7601 275.109 78.8267 274.576 78.9601C274.069 79.0934 273.602 79.2667 273.176 79.4801C272.749 79.6667 272.362 79.8934 272.016 80.1601C271.669 80.4267 271.336 80.6801 271.016 80.9201L268.856 78.6801ZM279.016 86.2001C278.162 86.2001 277.282 86.2534 276.376 86.3601C275.496 86.4401 274.682 86.6134 273.936 86.8801C273.216 87.1467 272.616 87.5201 272.136 88.0001C271.682 88.4801 271.456 89.0934 271.456 89.8401C271.456 90.9334 271.816 91.7201 272.536 92.2001C273.282 92.6801 274.282 92.9201 275.536 92.9201C276.522 92.9201 277.362 92.7601 278.056 92.4401C278.749 92.0934 279.309 91.6534 279.736 91.1201C280.162 90.5867 280.469 90.0001 280.656 89.3601C280.842 88.6934 280.936 88.0401 280.936 87.4001V86.2001H279.016Z" fill="#030228"/>
<path d="M299.171 67.0001H317.451V70.6001H303.011V79.0401H316.451V82.6401H303.011V91.7201H318.171V95.3201H299.171V67.0001Z" fill="#030228"/>
<path d="M321.504 76.3601H325.104V79.2801H325.184C325.637 78.2667 326.424 77.4534 327.544 76.8401C328.664 76.2001 329.957 75.8801 331.424 75.8801C332.33 75.8801 333.197 76.0267 334.024 76.3201C334.877 76.5867 335.61 77.0134 336.224 77.6001C336.864 78.1867 337.37 78.9467 337.744 79.8801C338.117 80.7867 338.304 81.8667 338.304 83.1201V95.3201H334.704V84.1201C334.704 83.2401 334.584 82.4934 334.344 81.8801C334.104 81.2401 333.784 80.7334 333.384 80.3601C332.984 79.9601 332.517 79.6801 331.984 79.5201C331.477 79.3334 330.944 79.2401 330.384 79.2401C329.637 79.2401 328.944 79.3601 328.304 79.6001C327.664 79.8401 327.104 80.2267 326.624 80.7601C326.144 81.2667 325.77 81.9201 325.504 82.7201C325.237 83.5201 325.104 84.4667 325.104 85.5601V95.3201H321.504V76.3601Z" fill="#030228"/>
<path d="M361.53 95.1601C361.53 96.6001 361.277 97.9067 360.77 99.0801C360.29 100.28 359.597 101.307 358.69 102.16C357.784 103.04 356.69 103.72 355.41 104.2C354.13 104.68 352.717 104.92 351.17 104.92C349.357 104.92 347.69 104.667 346.17 104.16C344.677 103.653 343.25 102.773 341.89 101.52L344.33 98.4801C345.264 99.4934 346.277 100.253 347.37 100.76C348.464 101.293 349.704 101.56 351.09 101.56C352.424 101.56 353.53 101.36 354.41 100.96C355.29 100.587 355.984 100.093 356.49 99.4801C357.024 98.8667 357.397 98.1601 357.61 97.3601C357.824 96.5867 357.93 95.8001 357.93 95.0001V92.2001H357.81C357.117 93.3467 356.17 94.2001 354.97 94.7601C353.797 95.2934 352.557 95.5601 351.25 95.5601C349.864 95.5601 348.57 95.3201 347.37 94.8401C346.197 94.3334 345.184 93.6534 344.33 92.8001C343.477 91.9201 342.81 90.8934 342.33 89.7201C341.85 88.5201 341.61 87.2267 341.61 85.8401C341.61 84.4534 341.837 83.1601 342.29 81.9601C342.744 80.7334 343.384 79.6667 344.21 78.7601C345.064 77.8534 346.077 77.1467 347.25 76.6401C348.45 76.1334 349.784 75.8801 351.25 75.8801C352.53 75.8801 353.77 76.1601 354.97 76.7201C356.197 77.2801 357.157 78.0667 357.85 79.0801H357.93V76.3601H361.53V95.1601ZM351.69 79.2401C350.73 79.2401 349.864 79.4134 349.09 79.7601C348.317 80.0801 347.664 80.5334 347.13 81.1201C346.597 81.6801 346.184 82.3734 345.89 83.2001C345.597 84.0001 345.45 84.8801 345.45 85.8401C345.45 87.7601 346.01 89.3067 347.13 90.4801C348.25 91.6267 349.77 92.2001 351.69 92.2001C353.61 92.2001 355.13 91.6267 356.25 90.4801C357.37 89.3067 357.93 87.7601 357.93 85.8401C357.93 84.8801 357.784 84.0001 357.49 83.2001C357.197 82.3734 356.784 81.6801 356.25 81.1201C355.717 80.5334 355.064 80.0801 354.29 79.7601C353.517 79.4134 352.65 79.2401 351.69 79.2401Z" fill="#030228"/>
<path d="M366.063 76.3601H369.663V95.3201H366.063V76.3601ZM365.223 69.5601C365.223 68.8401 365.477 68.2267 365.983 67.7201C366.517 67.1867 367.143 66.9201 367.863 66.9201C368.583 66.9201 369.197 67.1867 369.703 67.7201C370.237 68.2267 370.503 68.8401 370.503 69.5601C370.503 70.2801 370.237 70.9067 369.703 71.4401C369.197 71.9467 368.583 72.2001 367.863 72.2001C367.143 72.2001 366.517 71.9467 365.983 71.4401C365.477 70.9067 365.223 70.2801 365.223 69.5601Z" fill="#030228"/>
<path d="M374.193 76.3601H377.793V79.2801H377.873C378.326 78.2667 379.113 77.4534 380.233 76.8401C381.353 76.2001 382.646 75.8801 384.113 75.8801C385.019 75.8801 385.886 76.0267 386.713 76.3201C387.566 76.5867 388.299 77.0134 388.913 77.6001C389.553 78.1867 390.059 78.9467 390.433 79.8801C390.806 80.7867 390.993 81.8667 390.993 83.1201V95.3201H387.393V84.1201C387.393 83.2401 387.273 82.4934 387.033 81.8801C386.793 81.2401 386.473 80.7334 386.073 80.3601C385.673 79.9601 385.206 79.6801 384.673 79.5201C384.166 79.3334 383.633 79.2401 383.073 79.2401C382.326 79.2401 381.633 79.3601 380.993 79.6001C380.353 79.8401 379.793 80.2267 379.313 80.7601C378.833 81.2667 378.459 81.9201 378.193 82.7201C377.926 83.5201 377.793 84.4667 377.793 85.5601V95.3201H374.193V76.3601Z" fill="#030228"/>
<path d="M397.939 87.1601C397.939 87.9867 398.113 88.7467 398.459 89.4401C398.833 90.1067 399.313 90.6801 399.899 91.1601C400.486 91.6401 401.166 92.0134 401.939 92.2801C402.713 92.5467 403.513 92.6801 404.339 92.6801C405.459 92.6801 406.433 92.4267 407.259 91.9201C408.086 91.3867 408.846 90.6934 409.539 89.8401L412.259 91.9201C410.259 94.5067 407.459 95.8001 403.859 95.8001C402.366 95.8001 401.006 95.5467 399.779 95.0401C398.579 94.5334 397.553 93.8401 396.699 92.9601C395.873 92.0534 395.233 91.0001 394.779 89.8001C394.326 88.5734 394.099 87.2534 394.099 85.8401C394.099 84.4267 394.339 83.1201 394.819 81.9201C395.326 80.6934 396.006 79.6401 396.859 78.7601C397.739 77.8534 398.779 77.1467 399.979 76.6401C401.179 76.1334 402.486 75.8801 403.899 75.8801C405.579 75.8801 406.993 76.1734 408.139 76.7601C409.313 77.3467 410.273 78.1201 411.019 79.0801C411.766 80.0134 412.299 81.0801 412.619 82.2801C412.966 83.4534 413.139 84.6534 413.139 85.8801V87.1601H397.939ZM409.299 84.2801C409.273 83.4801 409.139 82.7467 408.899 82.0801C408.686 81.4134 408.353 80.8401 407.899 80.3601C407.446 79.8534 406.873 79.4667 406.179 79.2001C405.513 78.9067 404.726 78.7601 403.819 78.7601C402.939 78.7601 402.126 78.9334 401.379 79.2801C400.659 79.6001 400.046 80.0267 399.539 80.5601C399.033 81.0934 398.633 81.6934 398.339 82.3601C398.073 83.0001 397.939 83.6401 397.939 84.2801H409.299Z" fill="#030228"/>
<path d="M418.966 87.1601C418.966 87.9867 419.139 88.7467 419.486 89.4401C419.859 90.1067 420.339 90.6801 420.926 91.1601C421.513 91.6401 422.193 92.0134 422.966 92.2801C423.739 92.5467 424.539 92.6801 425.366 92.6801C426.486 92.6801 427.459 92.4267 428.286 91.9201C429.113 91.3867 429.873 90.6934 430.566 89.8401L433.286 91.9201C431.286 94.5067 428.486 95.8001 424.886 95.8001C423.393 95.8001 422.033 95.5467 420.806 95.0401C419.606 94.5334 418.579 93.8401 417.726 92.9601C416.899 92.0534 416.259 91.0001 415.806 89.8001C415.353 88.5734 415.126 87.2534 415.126 85.8401C415.126 84.4267 415.366 83.1201 415.846 81.9201C416.353 80.6934 417.033 79.6401 417.886 78.7601C418.766 77.8534 419.806 77.1467 421.006 76.6401C422.206 76.1334 423.513 75.8801 424.926 75.8801C426.606 75.8801 428.019 76.1734 429.166 76.7601C430.339 77.3467 431.299 78.1201 432.046 79.0801C432.793 80.0134 433.326 81.0801 433.646 82.2801C433.993 83.4534 434.166 84.6534 434.166 85.8801V87.1601H418.966ZM430.326 84.2801C430.299 83.4801 430.166 82.7467 429.926 82.0801C429.713 81.4134 429.379 80.8401 428.926 80.3601C428.473 79.8534 427.899 79.4667 427.206 79.2001C426.539 78.9067 425.753 78.7601 424.846 78.7601C423.966 78.7601 423.153 78.9334 422.406 79.2801C421.686 79.6001 421.073 80.0267 420.566 80.5601C420.059 81.0934 419.659 81.6934 419.366 82.3601C419.099 83.0001 418.966 83.6401 418.966 84.2801H430.326Z" fill="#030228"/>
<path d="M437.272 76.3601H440.872V79.2801H440.952C441.192 78.7734 441.512 78.3201 441.912 77.9201C442.312 77.4934 442.752 77.1334 443.232 76.8401C443.739 76.5467 444.286 76.3201 444.872 76.1601C445.459 75.9734 446.046 75.8801 446.632 75.8801C447.219 75.8801 447.752 75.9601 448.232 76.1201L448.072 80.0001C447.779 79.9201 447.486 79.8534 447.192 79.8001C446.899 79.7467 446.606 79.7201 446.312 79.7201C444.552 79.7201 443.206 80.2134 442.272 81.2001C441.339 82.1867 440.872 83.7201 440.872 85.8001V95.3201H437.272V76.3601Z" fill="#030228"/>
<path d="M451.157 76.3601H454.757V95.3201H451.157V76.3601ZM450.317 69.5601C450.317 68.8401 450.57 68.2267 451.077 67.7201C451.61 67.1867 452.237 66.9201 452.957 66.9201C453.677 66.9201 454.29 67.1867 454.797 67.7201C455.33 68.2267 455.597 68.8401 455.597 69.5601C455.597 70.2801 455.33 70.9067 454.797 71.4401C454.29 71.9467 453.677 72.2001 452.957 72.2001C452.237 72.2001 451.61 71.9467 451.077 71.4401C450.57 70.9067 450.317 70.2801 450.317 69.5601Z" fill="#030228"/>
<path d="M459.286 76.3601H462.887V79.2801H462.966C463.42 78.2667 464.206 77.4534 465.326 76.8401C466.447 76.2001 467.74 75.8801 469.206 75.8801C470.113 75.8801 470.98 76.0267 471.806 76.3201C472.66 76.5867 473.393 77.0134 474.007 77.6001C474.646 78.1867 475.153 78.9467 475.526 79.8801C475.9 80.7867 476.086 81.8667 476.086 83.1201V95.3201H472.486V84.1201C472.486 83.2401 472.366 82.4934 472.126 81.8801C471.887 81.2401 471.566 80.7334 471.166 80.3601C470.766 79.9601 470.3 79.6801 469.766 79.5201C469.26 79.3334 468.727 79.2401 468.167 79.2401C467.42 79.2401 466.727 79.3601 466.086 79.6001C465.447 79.8401 464.887 80.2267 464.406 80.7601C463.926 81.2667 463.553 81.9201 463.286 82.7201C463.02 83.5201 462.887 84.4667 462.887 85.5601V95.3201H459.286V76.3601Z" fill="#030228"/>
<path d="M499.313 95.1601C499.313 96.6001 499.06 97.9067 498.553 99.0801C498.073 100.28 497.38 101.307 496.473 102.16C495.566 103.04 494.473 103.72 493.193 104.2C491.913 104.68 490.5 104.92 488.953 104.92C487.14 104.92 485.473 104.667 483.953 104.16C482.46 103.653 481.033 102.773 479.673 101.52L482.113 98.4801C483.046 99.4934 484.06 100.253 485.153 100.76C486.246 101.293 487.486 101.56 488.873 101.56C490.206 101.56 491.313 101.36 492.193 100.96C493.073 100.587 493.766 100.093 494.273 99.4801C494.806 98.8667 495.18 98.1601 495.393 97.3601C495.606 96.5867 495.713 95.8001 495.713 95.0001V92.2001H495.593C494.9 93.3467 493.953 94.2001 492.753 94.7601C491.58 95.2934 490.34 95.5601 489.033 95.5601C487.646 95.5601 486.353 95.3201 485.153 94.8401C483.98 94.3334 482.966 93.6534 482.113 92.8001C481.26 91.9201 480.593 90.8934 480.113 89.7201C479.633 88.5201 479.393 87.2267 479.393 85.8401C479.393 84.4534 479.62 83.1601 480.073 81.9601C480.526 80.7334 481.166 79.6667 481.993 78.7601C482.846 77.8534 483.86 77.1467 485.033 76.6401C486.233 76.1334 487.566 75.8801 489.033 75.8801C490.313 75.8801 491.553 76.1601 492.753 76.7201C493.98 77.2801 494.94 78.0667 495.633 79.0801H495.713V76.3601H499.313V95.1601ZM489.473 79.2401C488.513 79.2401 487.646 79.4134 486.873 79.7601C486.1 80.0801 485.446 80.5334 484.913 81.1201C484.38 81.6801 483.966 82.3734 483.673 83.2001C483.38 84.0001 483.233 84.8801 483.233 85.8401C483.233 87.7601 483.793 89.3067 484.913 90.4801C486.033 91.6267 487.553 92.2001 489.473 92.2001C491.393 92.2001 492.913 91.6267 494.033 90.4801C495.153 89.3067 495.713 87.7601 495.713 85.8401C495.713 84.8801 495.566 84.0001 495.273 83.2001C494.98 82.3734 494.566 81.6801 494.033 81.1201C493.5 80.5334 492.846 80.0801 492.073 79.7601C491.3 79.4134 490.433 79.2401 489.473 79.2401Z" fill="#030228"/>
<defs>
<linearGradient id="paint0_linear_2052_385" x1="-115.438" y1="59.9883" x2="179.592" y2="8.11557" gradientUnits="userSpaceOnUse">
<stop offset="0.37" stop-color="#5E72E4"/>
<stop offset="0.885536" stop-color="#37FF94"/>
</linearGradient>
<linearGradient id="paint1_linear_2052_385" x1="-115.438" y1="59.9883" x2="179.592" y2="8.11557" gradientUnits="userSpaceOnUse">
<stop offset="0.37" stop-color="#5E72E4"/>
<stop offset="0.885536" stop-color="#37FF94"/>
</linearGradient>
<linearGradient id="paint2_linear_2052_385" x1="-115.438" y1="59.9883" x2="179.592" y2="8.11557" gradientUnits="userSpaceOnUse">
<stop offset="0.37" stop-color="#5E72E4"/>
<stop offset="0.885536" stop-color="#37FF94"/>
</linearGradient>
</defs>
</svg>
