<svg width="301" height="291" viewBox="0 0 301 291" fill="none" xmlns="http://www.w3.org/2000/svg">
<path d="M129.695 107.762C157.313 123.707 192.629 114.244 208.574 86.6258C224.52 59.0072 215.057 23.6915 187.439 7.74588C159.82 -8.19971 124.504 1.26312 108.559 28.8817C92.6131 56.5003 102.076 91.816 129.695 107.762Z" fill="url(#paint0_linear_2052_338)"/>
<path d="M28.8817 282.375C56.5003 298.32 91.816 288.857 107.762 261.239C123.707 233.62 114.244 198.305 86.6258 182.359C59.0072 166.413 23.6915 175.876 7.74588 203.495C-8.19971 231.113 1.26312 266.429 28.8817 282.375Z" fill="url(#paint1_linear_2052_338)"/>
<path d="M101.178 63.1266C103.852 121.513 85.6422 153.061 33.8111 179.815L115.236 226.826C105.734 164.661 123.947 133.115 182.608 110.14L101.178 63.1266Z" fill="url(#paint2_linear_2052_338)"/>
<path fill-rule="evenodd" clip-rule="evenodd" d="M228.47 145.06C188.413 145.06 155.94 177.532 155.94 217.59C155.94 257.647 188.413 290.12 228.47 290.12H295.001C296.514 290.12 297.896 289.56 298.951 288.636C292.358 283.74 284.789 282.346 275.27 280.691C270.716 279.899 266.076 280.092 259.913 280.348H259.913C252.55 280.654 243.014 281.05 228.85 279.966C211.411 277.085 205.951 271.441 197.303 261.844C194.569 258.678 193.773 256.972 193.03 255.378C192.689 254.648 192.36 253.942 191.86 253.129C188.495 246.834 187.64 243.357 186.792 237.173C186.2 227.921 186.221 223.718 186.792 218.315C187.382 213.417 188.242 210.255 191.144 203.809C193.744 198.241 201.033 198.511 205.839 202.341L249.533 237.173L251.353 239.006L213.754 193.086C209.88 188.354 209.608 181.086 215.173 178.547C221.643 175.701 224.813 174.869 229.716 174.322C235.124 173.798 239.327 173.813 248.573 174.486C254.749 175.389 258.219 176.274 264.485 179.693C265.293 180.2 265.996 180.536 266.723 180.883C268.311 181.64 270.01 182.451 273.152 185.212C282.672 193.943 288.269 199.453 290.997 216.917C292.217 234.914 291.758 246.837 291.454 254.724V254.724C291.313 258.407 291.205 261.21 291.317 263.34C291.345 263.854 291.368 264.379 291.392 264.915C291.661 270.933 291.991 278.309 298.365 286.363L299.763 287.77C300.539 286.759 301.001 285.493 301.001 284.12V217.59C301.001 177.532 268.528 145.06 228.47 145.06Z" fill="#08C460"/>
<defs>
<linearGradient id="paint0_linear_2052_338" x1="-279.091" y1="145.032" x2="434.194" y2="19.6208" gradientUnits="userSpaceOnUse">
<stop offset="0.37" stop-color="#5E72E4"/>
<stop offset="0.885536" stop-color="#37FF94"/>
</linearGradient>
<linearGradient id="paint1_linear_2052_338" x1="-279.091" y1="145.032" x2="434.194" y2="19.6208" gradientUnits="userSpaceOnUse">
<stop offset="0.37" stop-color="#5E72E4"/>
<stop offset="0.885536" stop-color="#37FF94"/>
</linearGradient>
<linearGradient id="paint2_linear_2052_338" x1="-279.091" y1="145.032" x2="434.194" y2="19.6208" gradientUnits="userSpaceOnUse">
<stop offset="0.37" stop-color="#5E72E4"/>
<stop offset="0.885536" stop-color="#37FF94"/>
</linearGradient>
</defs>
</svg>
